<mxfile host="app.diagrams.net" modified="2023-10-13T15:20:21.123Z" agent="Mozilla/5.0 (Windows NT 10.0; Win64; x64) AppleWebKit/537.36 (KHTML, like Gecko) Chrome/116.0.5845.2272 YaBrowser/23.9.0.2272 Yowser/2.5 Safari/537.36" etag="ykXFCRjgZxuX_CkLSsOP" version="22.0.4" type="google" pages="2">
  <diagram id="-S3YY5vVqqPt6Rw0K9Pr" name="Страница 1">
    <mxGraphModel grid="0" page="0" gridSize="10" guides="1" tooltips="1" connect="1" arrows="1" fold="1" pageScale="1" pageWidth="827" pageHeight="1169" math="0" shadow="0">
      <root>
        <mxCell id="0" />
        <mxCell id="1" parent="0" />
        <mxCell id="wkZWv4jO5fBGfH9fX4oG-76" value="Арендатор" style="swimlane;fontStyle=1;align=center;verticalAlign=top;childLayout=stackLayout;horizontal=1;startSize=26;horizontalStack=0;resizeParent=1;resizeParentMax=0;resizeLast=0;collapsible=1;marginBottom=0;" vertex="1" parent="1">
          <mxGeometry x="136" y="1356" width="235" height="303" as="geometry" />
        </mxCell>
        <mxCell id="wkZWv4jO5fBGfH9fX4oG-77" value="Personal Information&#xa;Account" style="text;strokeColor=none;fillColor=none;align=left;verticalAlign=top;spacingLeft=4;spacingRight=4;overflow=hidden;rotatable=0;points=[[0,0.5],[1,0.5]];portConstraint=eastwest;" vertex="1" parent="wkZWv4jO5fBGfH9fX4oG-76">
          <mxGeometry y="26" width="235" height="38" as="geometry" />
        </mxCell>
        <mxCell id="wkZWv4jO5fBGfH9fX4oG-78" value="" style="line;strokeWidth=1;fillColor=none;align=left;verticalAlign=middle;spacingTop=-1;spacingLeft=3;spacingRight=3;rotatable=0;labelPosition=right;points=[];portConstraint=eastwest;" vertex="1" parent="wkZWv4jO5fBGfH9fX4oG-76">
          <mxGeometry y="64" width="235" height="8" as="geometry" />
        </mxCell>
        <mxCell id="wkZWv4jO5fBGfH9fX4oG-79" value="+ RegisterInApp()&#xa;+ EditDataInProfile()&#xa;+ FindUsingFilters()&#xa;+ GetInformation()&#xa;+ WriteToOwner()&#xa;+ PayFullCost()&#xa;+ MakeAdvancePayment()&#xa;+ GiveUpHousing()&#xa;+ ChangeEvictionDate()&#xa;+ ChangeCheck-inDate()&#xa;+ WriteComplaint()&#xa;+ ContactOperatorForHelp()&#xa;+ EvaluateHousing()&#xa;+ WriteReview()&#xa;+ RequestRefund()" style="text;strokeColor=none;fillColor=none;align=left;verticalAlign=top;spacingLeft=4;spacingRight=4;overflow=hidden;rotatable=0;points=[[0,0.5],[1,0.5]];portConstraint=eastwest;" vertex="1" parent="wkZWv4jO5fBGfH9fX4oG-76">
          <mxGeometry y="72" width="235" height="231" as="geometry" />
        </mxCell>
        <mxCell id="wkZWv4jO5fBGfH9fX4oG-81" value="Время аренды" style="swimlane;fontStyle=1;align=center;verticalAlign=top;childLayout=stackLayout;horizontal=1;startSize=26;horizontalStack=0;resizeParent=1;resizeParentMax=0;resizeLast=0;collapsible=1;marginBottom=0;" vertex="1" parent="1">
          <mxGeometry x="469" y="1756" width="160" height="108" as="geometry" />
        </mxCell>
        <mxCell id="wkZWv4jO5fBGfH9fX4oG-82" value="time&#xa;price &#xa;place" style="text;strokeColor=none;fillColor=none;align=left;verticalAlign=top;spacingLeft=4;spacingRight=4;overflow=hidden;rotatable=0;points=[[0,0.5],[1,0.5]];portConstraint=eastwest;" vertex="1" parent="wkZWv4jO5fBGfH9fX4oG-81">
          <mxGeometry y="26" width="160" height="48" as="geometry" />
        </mxCell>
        <mxCell id="wkZWv4jO5fBGfH9fX4oG-83" value="" style="line;strokeWidth=1;fillColor=none;align=left;verticalAlign=middle;spacingTop=-1;spacingLeft=3;spacingRight=3;rotatable=0;labelPosition=right;points=[];portConstraint=eastwest;" vertex="1" parent="wkZWv4jO5fBGfH9fX4oG-81">
          <mxGeometry y="74" width="160" height="8" as="geometry" />
        </mxCell>
        <mxCell id="wkZWv4jO5fBGfH9fX4oG-84" value="+ method(type): type" style="text;strokeColor=none;fillColor=none;align=left;verticalAlign=top;spacingLeft=4;spacingRight=4;overflow=hidden;rotatable=0;points=[[0,0.5],[1,0.5]];portConstraint=eastwest;" vertex="1" parent="wkZWv4jO5fBGfH9fX4oG-81">
          <mxGeometry y="82" width="160" height="26" as="geometry" />
        </mxCell>
        <mxCell id="wkZWv4jO5fBGfH9fX4oG-85" value="Оператор" style="swimlane;fontStyle=1;align=center;verticalAlign=top;childLayout=stackLayout;horizontal=1;startSize=26;horizontalStack=0;resizeParent=1;resizeParentMax=0;resizeLast=0;collapsible=1;marginBottom=0;" vertex="1" parent="1">
          <mxGeometry x="120" y="1711" width="261" height="253" as="geometry" />
        </mxCell>
        <mxCell id="wkZWv4jO5fBGfH9fX4oG-86" value="Name&#xa;Adress&#xa;Phone&#xa;WebSite" style="text;strokeColor=none;fillColor=none;align=left;verticalAlign=top;spacingLeft=4;spacingRight=4;overflow=hidden;rotatable=0;points=[[0,0.5],[1,0.5]];portConstraint=eastwest;" vertex="1" parent="wkZWv4jO5fBGfH9fX4oG-85">
          <mxGeometry y="26" width="261" height="69" as="geometry" />
        </mxCell>
        <mxCell id="wkZWv4jO5fBGfH9fX4oG-87" value="" style="line;strokeWidth=1;fillColor=none;align=left;verticalAlign=middle;spacingTop=-1;spacingLeft=3;spacingRight=3;rotatable=0;labelPosition=right;points=[];portConstraint=eastwest;" vertex="1" parent="wkZWv4jO5fBGfH9fX4oG-85">
          <mxGeometry y="95" width="261" height="8" as="geometry" />
        </mxCell>
        <mxCell id="wkZWv4jO5fBGfH9fX4oG-88" value="ChangeInformatiOnaVailableDates()&#xa;EditInformation()&#xa;CheckHousingForAuthenticity()&#xa;RemoveHousingFromSite()&#xa;SendPaymentConfirmationNotification()&#xa;ConfirmRefund()&#xa;FixViolation()&#xa;RespondToComplaint()&#xa;CheckComplaintForAuthenticity()" style="text;strokeColor=none;fillColor=none;align=left;verticalAlign=top;spacingLeft=4;spacingRight=4;overflow=hidden;rotatable=0;points=[[0,0.5],[1,0.5]];portConstraint=eastwest;" vertex="1" parent="wkZWv4jO5fBGfH9fX4oG-85">
          <mxGeometry y="103" width="261" height="150" as="geometry" />
        </mxCell>
        <mxCell id="wkZWv4jO5fBGfH9fX4oG-97" value="Жилье" style="swimlane;fontStyle=1;align=center;verticalAlign=top;childLayout=stackLayout;horizontal=1;startSize=26;horizontalStack=0;resizeParent=1;resizeParentMax=0;resizeLast=0;collapsible=1;marginBottom=0;" vertex="1" parent="1">
          <mxGeometry x="473" y="1628" width="160" height="88" as="geometry" />
        </mxCell>
        <mxCell id="wkZWv4jO5fBGfH9fX4oG-98" value="Location&#xa;Information" style="text;strokeColor=none;fillColor=none;align=left;verticalAlign=top;spacingLeft=4;spacingRight=4;overflow=hidden;rotatable=0;points=[[0,0.5],[1,0.5]];portConstraint=eastwest;" vertex="1" parent="wkZWv4jO5fBGfH9fX4oG-97">
          <mxGeometry y="26" width="160" height="34" as="geometry" />
        </mxCell>
        <mxCell id="wkZWv4jO5fBGfH9fX4oG-99" value="" style="line;strokeWidth=1;fillColor=none;align=left;verticalAlign=middle;spacingTop=-1;spacingLeft=3;spacingRight=3;rotatable=0;labelPosition=right;points=[];portConstraint=eastwest;" vertex="1" parent="wkZWv4jO5fBGfH9fX4oG-97">
          <mxGeometry y="60" width="160" height="2" as="geometry" />
        </mxCell>
        <mxCell id="wkZWv4jO5fBGfH9fX4oG-100" value="+ method(type): type" style="text;strokeColor=none;fillColor=none;align=left;verticalAlign=top;spacingLeft=4;spacingRight=4;overflow=hidden;rotatable=0;points=[[0,0.5],[1,0.5]];portConstraint=eastwest;" vertex="1" parent="wkZWv4jO5fBGfH9fX4oG-97">
          <mxGeometry y="62" width="160" height="26" as="geometry" />
        </mxCell>
        <mxCell id="wkZWv4jO5fBGfH9fX4oG-101" value="&quot;interface&quot;&#xa;оплата жилья" style="swimlane;fontStyle=1;align=center;verticalAlign=top;childLayout=stackLayout;horizontal=1;startSize=37;horizontalStack=0;resizeParent=1;resizeParentMax=0;resizeLast=0;collapsible=1;marginBottom=0;" vertex="1" parent="1">
          <mxGeometry x="473" y="1443" width="160" height="110" as="geometry" />
        </mxCell>
        <mxCell id="wkZWv4jO5fBGfH9fX4oG-102" value="ID&#xa;Price" style="text;strokeColor=none;fillColor=none;align=left;verticalAlign=top;spacingLeft=4;spacingRight=4;overflow=hidden;rotatable=0;points=[[0,0.5],[1,0.5]];portConstraint=eastwest;" vertex="1" parent="wkZWv4jO5fBGfH9fX4oG-101">
          <mxGeometry y="37" width="160" height="39" as="geometry" />
        </mxCell>
        <mxCell id="wkZWv4jO5fBGfH9fX4oG-103" value="" style="line;strokeWidth=1;fillColor=none;align=left;verticalAlign=middle;spacingTop=-1;spacingLeft=3;spacingRight=3;rotatable=0;labelPosition=right;points=[];portConstraint=eastwest;" vertex="1" parent="wkZWv4jO5fBGfH9fX4oG-101">
          <mxGeometry y="76" width="160" height="8" as="geometry" />
        </mxCell>
        <mxCell id="wkZWv4jO5fBGfH9fX4oG-104" value="+ method(type): type" style="text;strokeColor=none;fillColor=none;align=left;verticalAlign=top;spacingLeft=4;spacingRight=4;overflow=hidden;rotatable=0;points=[[0,0.5],[1,0.5]];portConstraint=eastwest;" vertex="1" parent="wkZWv4jO5fBGfH9fX4oG-101">
          <mxGeometry y="84" width="160" height="26" as="geometry" />
        </mxCell>
        <mxCell id="wkZWv4jO5fBGfH9fX4oG-107" value="Владелец жилья" style="swimlane;fontStyle=1;align=center;verticalAlign=top;childLayout=stackLayout;horizontal=1;startSize=26;horizontalStack=0;resizeParent=1;resizeParentMax=0;resizeLast=0;collapsible=1;marginBottom=0;" vertex="1" parent="1">
          <mxGeometry x="803" y="1680.5" width="182" height="220" as="geometry" />
        </mxCell>
        <mxCell id="wkZWv4jO5fBGfH9fX4oG-108" value="Description&#xa;Name&#xa;Storepage&#xa;Housing" style="text;strokeColor=none;fillColor=none;align=left;verticalAlign=top;spacingLeft=4;spacingRight=4;overflow=hidden;rotatable=0;points=[[0,0.5],[1,0.5]];portConstraint=eastwest;" vertex="1" parent="wkZWv4jO5fBGfH9fX4oG-107">
          <mxGeometry y="26" width="182" height="64" as="geometry" />
        </mxCell>
        <mxCell id="wkZWv4jO5fBGfH9fX4oG-109" value="" style="line;strokeWidth=1;fillColor=none;align=left;verticalAlign=middle;spacingTop=-1;spacingLeft=3;spacingRight=3;rotatable=0;labelPosition=right;points=[];portConstraint=eastwest;" vertex="1" parent="wkZWv4jO5fBGfH9fX4oG-107">
          <mxGeometry y="90" width="182" height="8" as="geometry" />
        </mxCell>
        <mxCell id="wkZWv4jO5fBGfH9fX4oG-110" value="SendPaymentReceipt()&#xa;GetCash()&#xa;RespondReview()&#xa;GivePersonalInformation()&#xa;UploadInformation()&#xa;GiveInformatiOnAvailableDates()&#xa;IssueRefund()&#xa;WaitForConfirmationHousing()" style="text;strokeColor=none;fillColor=none;align=left;verticalAlign=top;spacingLeft=4;spacingRight=4;overflow=hidden;rotatable=0;points=[[0,0.5],[1,0.5]];portConstraint=eastwest;" vertex="1" parent="wkZWv4jO5fBGfH9fX4oG-107">
          <mxGeometry y="98" width="182" height="122" as="geometry" />
        </mxCell>
        <mxCell id="wkZWv4jO5fBGfH9fX4oG-129" value="" style="endArrow=none;html=1;rounded=0;edgeStyle=orthogonalEdgeStyle;exitX=0;exitY=0.5;exitDx=0;exitDy=0;entryX=1;entryY=0.5;entryDx=0;entryDy=0;startArrow=none;" edge="1" parent="1" source="wkZWv4jO5fBGfH9fX4oG-149" target="wkZWv4jO5fBGfH9fX4oG-79">
          <mxGeometry relative="1" as="geometry">
            <mxPoint x="410" y="1648" as="sourcePoint" />
            <mxPoint x="570" y="1648" as="targetPoint" />
          </mxGeometry>
        </mxCell>
        <mxCell id="wkZWv4jO5fBGfH9fX4oG-136" value="" style="endArrow=none;html=1;rounded=0;edgeStyle=orthogonalEdgeStyle;entryX=0;entryY=0.5;entryDx=0;entryDy=0;startArrow=none;" edge="1" parent="1" source="wkZWv4jO5fBGfH9fX4oG-147" target="wkZWv4jO5fBGfH9fX4oG-102">
          <mxGeometry relative="1" as="geometry">
            <mxPoint x="439" y="1826" as="sourcePoint" />
            <mxPoint x="599" y="1826" as="targetPoint" />
            <Array as="points">
              <mxPoint x="440" y="1455" />
              <mxPoint x="440" y="1489" />
            </Array>
          </mxGeometry>
        </mxCell>
        <mxCell id="wkZWv4jO5fBGfH9fX4oG-140" value="" style="endArrow=diamondThin;endFill=0;endSize=24;html=1;rounded=0;edgeStyle=orthogonalEdgeStyle;exitX=1;exitY=0.5;exitDx=0;exitDy=0;entryX=0;entryY=0.5;entryDx=0;entryDy=0;startArrow=none;" edge="1" parent="1" source="vnEjhBpyxunlKA2A0PJT-8" target="wkZWv4jO5fBGfH9fX4oG-110">
          <mxGeometry width="160" relative="1" as="geometry">
            <mxPoint x="454" y="1663" as="sourcePoint" />
            <mxPoint x="614" y="1663" as="targetPoint" />
          </mxGeometry>
        </mxCell>
        <mxCell id="wkZWv4jO5fBGfH9fX4oG-147" value="pay" style="text;html=1;strokeColor=none;fillColor=none;align=center;verticalAlign=middle;whiteSpace=wrap;rounded=0;" vertex="1" parent="1">
          <mxGeometry x="393" y="1446" width="25" height="16" as="geometry" />
        </mxCell>
        <mxCell id="wkZWv4jO5fBGfH9fX4oG-148" value="" style="endArrow=none;html=1;rounded=0;edgeStyle=orthogonalEdgeStyle;entryX=0;entryY=0.5;entryDx=0;entryDy=0;" edge="1" parent="1" source="wkZWv4jO5fBGfH9fX4oG-79" target="wkZWv4jO5fBGfH9fX4oG-147">
          <mxGeometry relative="1" as="geometry">
            <mxPoint x="371" y="1455" as="sourcePoint" />
            <mxPoint x="472.9999999999998" y="1488.5" as="targetPoint" />
            <Array as="points">
              <mxPoint x="374" y="1454" />
              <mxPoint x="374" y="1454" />
            </Array>
          </mxGeometry>
        </mxCell>
        <mxCell id="wkZWv4jO5fBGfH9fX4oG-149" value="arend" style="text;html=1;strokeColor=none;fillColor=none;align=center;verticalAlign=middle;whiteSpace=wrap;rounded=0;" vertex="1" parent="1">
          <mxGeometry x="382" y="1543" width="29" height="30" as="geometry" />
        </mxCell>
        <mxCell id="wkZWv4jO5fBGfH9fX4oG-150" value="" style="endArrow=none;html=1;rounded=0;edgeStyle=orthogonalEdgeStyle;exitX=0;exitY=0.5;exitDx=0;exitDy=0;entryX=1;entryY=0.5;entryDx=0;entryDy=0;" edge="1" parent="1" source="wkZWv4jO5fBGfH9fX4oG-98" target="wkZWv4jO5fBGfH9fX4oG-149">
          <mxGeometry relative="1" as="geometry">
            <mxPoint x="471" y="1606" as="sourcePoint" />
            <mxPoint x="371" y="1558" as="targetPoint" />
          </mxGeometry>
        </mxCell>
        <mxCell id="wkZWv4jO5fBGfH9fX4oG-152" value="" style="endArrow=none;html=1;rounded=0;edgeStyle=orthogonalEdgeStyle;startArrow=none;exitX=0.5;exitY=1;exitDx=0;exitDy=0;" edge="1" parent="1" source="wkZWv4jO5fBGfH9fX4oG-153" target="wkZWv4jO5fBGfH9fX4oG-85">
          <mxGeometry relative="1" as="geometry">
            <mxPoint x="237" y="1704" as="sourcePoint" />
            <mxPoint x="244" y="1710" as="targetPoint" />
            <Array as="points">
              <mxPoint x="244" y="1711" />
              <mxPoint x="244" y="1711" />
            </Array>
          </mxGeometry>
        </mxCell>
        <mxCell id="wkZWv4jO5fBGfH9fX4oG-153" value="Interact" style="text;html=1;strokeColor=none;fillColor=none;align=center;verticalAlign=middle;whiteSpace=wrap;rounded=0;" vertex="1" parent="1">
          <mxGeometry x="224" y="1685" width="41" height="10" as="geometry" />
        </mxCell>
        <mxCell id="wkZWv4jO5fBGfH9fX4oG-154" value="" style="endArrow=none;html=1;rounded=0;edgeStyle=orthogonalEdgeStyle;exitX=0.46;exitY=1;exitDx=0;exitDy=0;exitPerimeter=0;" edge="1" parent="1" source="wkZWv4jO5fBGfH9fX4oG-79" target="wkZWv4jO5fBGfH9fX4oG-153">
          <mxGeometry relative="1" as="geometry">
            <mxPoint x="244.0999999999999" y="1673" as="sourcePoint" />
            <mxPoint x="250" y="1711" as="targetPoint" />
            <Array as="points">
              <mxPoint x="244" y="1678" />
              <mxPoint x="244" y="1678" />
            </Array>
          </mxGeometry>
        </mxCell>
        <mxCell id="wkZWv4jO5fBGfH9fX4oG-155" value="" style="endArrow=none;html=1;rounded=0;edgeStyle=orthogonalEdgeStyle;entryX=0;entryY=0.5;entryDx=0;entryDy=0;exitX=0.5;exitY=0;exitDx=0;exitDy=0;startArrow=none;" edge="1" parent="1" source="wkZWv4jO5fBGfH9fX4oG-151" target="wkZWv4jO5fBGfH9fX4oG-79">
          <mxGeometry relative="1" as="geometry">
            <mxPoint x="218" y="1563" as="sourcePoint" />
            <mxPoint x="378" y="1563" as="targetPoint" />
            <Array as="points">
              <mxPoint x="29" y="1544" />
            </Array>
          </mxGeometry>
        </mxCell>
        <mxCell id="wkZWv4jO5fBGfH9fX4oG-151" value="negotiate" style="text;html=1;strokeColor=none;fillColor=none;align=center;verticalAlign=middle;whiteSpace=wrap;rounded=0;" vertex="1" parent="1">
          <mxGeometry x="3" y="1682" width="52" height="11" as="geometry" />
        </mxCell>
        <mxCell id="wkZWv4jO5fBGfH9fX4oG-156" value="" style="endArrow=none;html=1;rounded=0;edgeStyle=orthogonalEdgeStyle;entryX=0.5;entryY=1;entryDx=0;entryDy=0;exitX=0.46;exitY=1.004;exitDx=0;exitDy=0;exitPerimeter=0;" edge="1" parent="1" source="wkZWv4jO5fBGfH9fX4oG-110" target="wkZWv4jO5fBGfH9fX4oG-151">
          <mxGeometry relative="1" as="geometry">
            <mxPoint x="945.9200000000001" y="1948.232" as="sourcePoint" />
            <mxPoint x="136" y="1558" as="targetPoint" />
            <Array as="points">
              <mxPoint x="887" y="1987" />
              <mxPoint x="29" y="1987" />
            </Array>
          </mxGeometry>
        </mxCell>
        <mxCell id="vnEjhBpyxunlKA2A0PJT-5" value="choose" style="text;html=1;strokeColor=none;fillColor=none;align=center;verticalAlign=middle;whiteSpace=wrap;rounded=0;" vertex="1" parent="1">
          <mxGeometry x="379" y="1596" width="39" height="16" as="geometry" />
        </mxCell>
        <mxCell id="vnEjhBpyxunlKA2A0PJT-6" value="" style="edgeStyle=orthogonalEdgeStyle;rounded=0;orthogonalLoop=1;jettySize=auto;html=1;entryX=0;entryY=0.5;entryDx=0;entryDy=0;endArrow=none;" edge="1" parent="1" source="wkZWv4jO5fBGfH9fX4oG-76" target="vnEjhBpyxunlKA2A0PJT-5">
          <mxGeometry relative="1" as="geometry">
            <mxPoint x="371" y="1605" as="sourcePoint" />
            <mxPoint x="473" y="1786" as="targetPoint" />
            <Array as="points">
              <mxPoint x="379" y="1604" />
              <mxPoint x="379" y="1604" />
            </Array>
          </mxGeometry>
        </mxCell>
        <mxCell id="vnEjhBpyxunlKA2A0PJT-7" value="" style="endArrow=none;html=1;rounded=0;edgeStyle=orthogonalEdgeStyle;entryX=1;entryY=0.5;entryDx=0;entryDy=0;" edge="1" parent="1" source="wkZWv4jO5fBGfH9fX4oG-82" target="vnEjhBpyxunlKA2A0PJT-5">
          <mxGeometry relative="1" as="geometry">
            <mxPoint x="441" y="1678" as="sourcePoint" />
            <mxPoint x="379" y="1599" as="targetPoint" />
            <Array as="points">
              <mxPoint x="427" y="1786" />
              <mxPoint x="427" y="1604" />
            </Array>
          </mxGeometry>
        </mxCell>
        <mxCell id="vnEjhBpyxunlKA2A0PJT-8" value="control" style="text;html=1;strokeColor=none;fillColor=none;align=center;verticalAlign=middle;whiteSpace=wrap;rounded=0;" vertex="1" parent="1">
          <mxGeometry x="507" y="1884" width="41" height="10" as="geometry" />
        </mxCell>
        <mxCell id="vnEjhBpyxunlKA2A0PJT-9" value="" style="endArrow=none;endFill=0;endSize=24;html=1;rounded=0;edgeStyle=orthogonalEdgeStyle;exitX=1;exitY=0.5;exitDx=0;exitDy=0;entryX=0;entryY=0.5;entryDx=0;entryDy=0;" edge="1" parent="1" source="wkZWv4jO5fBGfH9fX4oG-88" target="vnEjhBpyxunlKA2A0PJT-8">
          <mxGeometry width="160" relative="1" as="geometry">
            <mxPoint x="381" y="1889" as="sourcePoint" />
            <mxPoint x="872" y="1889" as="targetPoint" />
          </mxGeometry>
        </mxCell>
        <mxCell id="vnEjhBpyxunlKA2A0PJT-10" value="" style="endArrow=none;html=1;rounded=0;edgeStyle=orthogonalEdgeStyle;entryX=1;entryY=0.5;entryDx=0;entryDy=0;exitX=0;exitY=0.5;exitDx=0;exitDy=0;startArrow=none;" edge="1" parent="1" source="vnEjhBpyxunlKA2A0PJT-15" target="wkZWv4jO5fBGfH9fX4oG-98">
          <mxGeometry relative="1" as="geometry">
            <mxPoint x="714" y="1761" as="sourcePoint" />
            <mxPoint x="659" y="1578.9714285714285" as="targetPoint" />
            <Array as="points" />
          </mxGeometry>
        </mxCell>
        <mxCell id="vnEjhBpyxunlKA2A0PJT-11" value="" style="endArrow=none;html=1;rounded=0;edgeStyle=orthogonalEdgeStyle;entryX=1;entryY=0.5;entryDx=0;entryDy=0;exitX=0;exitY=0.5;exitDx=0;exitDy=0;startArrow=none;" edge="1" parent="1" source="vnEjhBpyxunlKA2A0PJT-17" target="wkZWv4jO5fBGfH9fX4oG-82">
          <mxGeometry relative="1" as="geometry">
            <mxPoint x="683" y="1711" as="sourcePoint" />
            <mxPoint x="628" y="1528.9714285714285" as="targetPoint" />
            <Array as="points" />
          </mxGeometry>
        </mxCell>
        <mxCell id="vnEjhBpyxunlKA2A0PJT-12" value="" style="endArrow=none;html=1;rounded=0;edgeStyle=orthogonalEdgeStyle;entryX=1;entryY=0.5;entryDx=0;entryDy=0;exitX=0;exitY=0.5;exitDx=0;exitDy=0;startArrow=none;" edge="1" parent="1" source="vnEjhBpyxunlKA2A0PJT-13" target="wkZWv4jO5fBGfH9fX4oG-102">
          <mxGeometry relative="1" as="geometry">
            <mxPoint x="744" y="1741" as="sourcePoint" />
            <mxPoint x="689" y="1558.9714285714285" as="targetPoint" />
            <Array as="points" />
          </mxGeometry>
        </mxCell>
        <mxCell id="vnEjhBpyxunlKA2A0PJT-13" value="get" style="text;whiteSpace=wrap;html=1;" vertex="1" parent="1">
          <mxGeometry x="658.5" y="1485.5" width="21" height="28" as="geometry" />
        </mxCell>
        <mxCell id="vnEjhBpyxunlKA2A0PJT-14" value="" style="endArrow=none;html=1;rounded=0;edgeStyle=orthogonalEdgeStyle;entryX=1;entryY=0.5;entryDx=0;entryDy=0;exitX=-0.002;exitY=0.705;exitDx=0;exitDy=0;exitPerimeter=0;" edge="1" parent="1" source="wkZWv4jO5fBGfH9fX4oG-108" target="vnEjhBpyxunlKA2A0PJT-13">
          <mxGeometry relative="1" as="geometry">
            <mxPoint x="873.4559999999997" y="1784.3000000000002" as="sourcePoint" />
            <mxPoint x="633" y="1488.5" as="targetPoint" />
            <Array as="points">
              <mxPoint x="804" y="1752" />
              <mxPoint x="767" y="1752" />
              <mxPoint x="767" y="1500" />
            </Array>
          </mxGeometry>
        </mxCell>
        <mxCell id="vnEjhBpyxunlKA2A0PJT-15" value="own" style="text;whiteSpace=wrap;html=1;" vertex="1" parent="1">
          <mxGeometry x="653.5" y="1658.5" width="26" height="25" as="geometry" />
        </mxCell>
        <mxCell id="vnEjhBpyxunlKA2A0PJT-16" value="" style="endArrow=none;html=1;rounded=0;edgeStyle=orthogonalEdgeStyle;entryX=1;entryY=0.5;entryDx=0;entryDy=0;exitX=0;exitY=0.5;exitDx=0;exitDy=0;" edge="1" parent="1" source="wkZWv4jO5fBGfH9fX4oG-108" target="vnEjhBpyxunlKA2A0PJT-15">
          <mxGeometry relative="1" as="geometry">
            <mxPoint x="872" y="1794.5" as="sourcePoint" />
            <mxPoint x="633" y="1637" as="targetPoint" />
            <Array as="points">
              <mxPoint x="781" y="1739" />
              <mxPoint x="781" y="1673" />
              <mxPoint x="680" y="1673" />
            </Array>
          </mxGeometry>
        </mxCell>
        <mxCell id="vnEjhBpyxunlKA2A0PJT-17" value="approve" style="text;whiteSpace=wrap;html=1;" vertex="1" parent="1">
          <mxGeometry x="651" y="1792" width="47" height="28" as="geometry" />
        </mxCell>
        <mxCell id="vnEjhBpyxunlKA2A0PJT-18" value="" style="endArrow=none;html=1;rounded=0;edgeStyle=orthogonalEdgeStyle;entryX=1;entryY=0.5;entryDx=0;entryDy=0;exitX=-0.003;exitY=0.234;exitDx=0;exitDy=0;exitPerimeter=0;" edge="1" parent="1" source="wkZWv4jO5fBGfH9fX4oG-110" target="vnEjhBpyxunlKA2A0PJT-17">
          <mxGeometry relative="1" as="geometry">
            <mxPoint x="871.2719999999999" y="1806.281" as="sourcePoint" />
            <mxPoint x="633" y="1786" as="targetPoint" />
            <Array as="points">
              <mxPoint x="698" y="1807" />
            </Array>
          </mxGeometry>
        </mxCell>
        <mxCell id="6zBJDuaUsH8erSHYBg0u-50" value="&quot;interface&quot;&#xa;Забронировать жилье" style="swimlane;fontStyle=1;align=center;verticalAlign=top;childLayout=stackLayout;horizontal=1;startSize=40;horizontalStack=0;resizeParent=1;resizeParentMax=0;resizeLast=0;collapsible=1;marginBottom=0;" vertex="1" parent="1">
          <mxGeometry x="789" y="1528" width="230" height="121" as="geometry" />
        </mxCell>
        <mxCell id="6zBJDuaUsH8erSHYBg0u-51" value="+ выбрать период бронирование:String&#xa;+ выбрать время заезда/выезда,:String&#xa;+ ввести необходимые данные для &#xa;бронирования,:String&#xa;+ выбрать способ оплаты :String" style="text;strokeColor=none;fillColor=none;align=left;verticalAlign=top;spacingLeft=4;spacingRight=4;overflow=hidden;rotatable=0;points=[[0,0.5],[1,0.5]];portConstraint=eastwest;" vertex="1" parent="6zBJDuaUsH8erSHYBg0u-50">
          <mxGeometry y="40" width="230" height="81" as="geometry" />
        </mxCell>
        <mxCell id="6zBJDuaUsH8erSHYBg0u-53" value="" style="endArrow=block;dashed=1;endFill=0;endSize=12;html=1;rounded=0;exitX=1;exitY=0.5;exitDx=0;exitDy=0;entryX=0.5;entryY=0;entryDx=0;entryDy=0;edgeStyle=orthogonalEdgeStyle;" edge="1" parent="1" source="wkZWv4jO5fBGfH9fX4oG-77" target="6zBJDuaUsH8erSHYBg0u-50">
          <mxGeometry width="160" relative="1" as="geometry">
            <mxPoint x="1139" y="1346" as="sourcePoint" />
            <mxPoint x="999" y="1335" as="targetPoint" />
            <Array as="points">
              <mxPoint x="904" y="1401" />
            </Array>
          </mxGeometry>
        </mxCell>
        <mxCell id="6zBJDuaUsH8erSHYBg0u-54" value="База данных" style="swimlane;fontStyle=1;align=center;verticalAlign=top;childLayout=stackLayout;horizontal=1;startSize=26;horizontalStack=0;resizeParent=1;resizeParentMax=0;resizeLast=0;collapsible=1;marginBottom=0;" vertex="1" parent="1">
          <mxGeometry x="432" y="1198" width="280" height="140" as="geometry" />
        </mxCell>
        <mxCell id="6zBJDuaUsH8erSHYBg0u-55" value="- ID базы данных:Intenger" style="text;strokeColor=none;fillColor=none;align=left;verticalAlign=top;spacingLeft=4;spacingRight=4;overflow=hidden;rotatable=0;points=[[0,0.5],[1,0.5]];portConstraint=eastwest;" vertex="1" parent="6zBJDuaUsH8erSHYBg0u-54">
          <mxGeometry y="26" width="280" height="24" as="geometry" />
        </mxCell>
        <mxCell id="6zBJDuaUsH8erSHYBg0u-56" value="" style="line;strokeWidth=1;fillColor=none;align=left;verticalAlign=middle;spacingTop=-1;spacingLeft=3;spacingRight=3;rotatable=0;labelPosition=right;points=[];portConstraint=eastwest;" vertex="1" parent="6zBJDuaUsH8erSHYBg0u-54">
          <mxGeometry y="50" width="280" height="8" as="geometry" />
        </mxCell>
        <mxCell id="6zBJDuaUsH8erSHYBg0u-57" value="- Хранение информации о клиенте():String&#xa; -Хранение документов клиента():String&#xa;- Хранение забронированных авто():String&#xa; -Хранение истории бронирования():String&#xa; -Хранение информации о парке авто():String" style="text;strokeColor=none;fillColor=none;align=left;verticalAlign=top;spacingLeft=4;spacingRight=4;overflow=hidden;rotatable=0;points=[[0,0.5],[1,0.5]];portConstraint=eastwest;" vertex="1" parent="6zBJDuaUsH8erSHYBg0u-54">
          <mxGeometry y="58" width="280" height="82" as="geometry" />
        </mxCell>
        <mxCell id="6zBJDuaUsH8erSHYBg0u-58" value="Use" style="endArrow=open;endSize=12;dashed=1;html=1;rounded=0;exitX=1;exitY=0.5;exitDx=0;exitDy=0;edgeStyle=orthogonalEdgeStyle;entryX=0.75;entryY=0;entryDx=0;entryDy=0;" edge="1" parent="1" source="6zBJDuaUsH8erSHYBg0u-57" target="6zBJDuaUsH8erSHYBg0u-50">
          <mxGeometry width="160" relative="1" as="geometry">
            <mxPoint x="1864" y="1207" as="sourcePoint" />
            <mxPoint x="1724" y="1521" as="targetPoint" />
            <Array as="points">
              <mxPoint x="961" y="1297" />
            </Array>
          </mxGeometry>
        </mxCell>
        <mxCell id="6zBJDuaUsH8erSHYBg0u-59" value="Use" style="endArrow=open;endSize=12;dashed=1;html=1;rounded=0;exitX=0;exitY=0.5;exitDx=0;exitDy=0;edgeStyle=orthogonalEdgeStyle;entryX=0.5;entryY=0;entryDx=0;entryDy=0;" edge="1" parent="1" source="6zBJDuaUsH8erSHYBg0u-57" target="wkZWv4jO5fBGfH9fX4oG-76">
          <mxGeometry width="160" relative="1" as="geometry">
            <mxPoint x="722" y="1307" as="sourcePoint" />
            <mxPoint x="1041" y="1588" as="targetPoint" />
            <Array as="points">
              <mxPoint x="432" y="1294" />
              <mxPoint x="254" y="1294" />
              <mxPoint x="254" y="1356" />
            </Array>
          </mxGeometry>
        </mxCell>
        <mxCell id="6zBJDuaUsH8erSHYBg0u-60" value="Use" style="endArrow=open;endSize=12;dashed=1;html=1;rounded=0;edgeStyle=orthogonalEdgeStyle;entryX=1;entryY=0.5;entryDx=0;entryDy=0;exitX=1.001;exitY=0.214;exitDx=0;exitDy=0;exitPerimeter=0;" edge="1" parent="1" source="6zBJDuaUsH8erSHYBg0u-57" target="wkZWv4jO5fBGfH9fX4oG-108">
          <mxGeometry width="160" relative="1" as="geometry">
            <mxPoint x="446" y="1415" as="sourcePoint" />
            <mxPoint x="264" y="1366" as="targetPoint" />
            <Array as="points">
              <mxPoint x="712" y="1271" />
              <mxPoint x="1113" y="1271" />
              <mxPoint x="1113" y="1739" />
              <mxPoint x="985" y="1739" />
            </Array>
          </mxGeometry>
        </mxCell>
        <mxCell id="6zBJDuaUsH8erSHYBg0u-61" value="" style="endArrow=diamondThin;endFill=1;endSize=24;html=1;rounded=0;exitX=1;exitY=0.102;exitDx=0;exitDy=0;entryX=1;entryY=0.5;entryDx=0;entryDy=0;exitPerimeter=0;edgeStyle=orthogonalEdgeStyle;" edge="1" parent="1" source="wkZWv4jO5fBGfH9fX4oG-81" target="wkZWv4jO5fBGfH9fX4oG-104">
          <mxGeometry width="160" relative="1" as="geometry">
            <mxPoint x="1334" y="1352" as="sourcePoint" />
            <mxPoint x="1504" y="1324" as="targetPoint" />
            <Array as="points">
              <mxPoint x="742" y="1768" />
              <mxPoint x="742" y="1540" />
            </Array>
          </mxGeometry>
        </mxCell>
        <mxCell id="6zBJDuaUsH8erSHYBg0u-62" value="Аккаунт" style="swimlane;fontStyle=1;align=center;verticalAlign=top;childLayout=stackLayout;horizontal=1;startSize=26;horizontalStack=0;resizeParent=1;resizeParentMax=0;resizeLast=0;collapsible=1;marginBottom=0;" vertex="1" parent="1">
          <mxGeometry x="-84" y="1385" width="160" height="70" as="geometry" />
        </mxCell>
        <mxCell id="6zBJDuaUsH8erSHYBg0u-63" value="+ФИО:String&#xa;+ID аккаунта:Int" style="text;strokeColor=none;fillColor=none;align=left;verticalAlign=top;spacingLeft=4;spacingRight=4;overflow=hidden;rotatable=0;points=[[0,0.5],[1,0.5]];portConstraint=eastwest;" vertex="1" parent="6zBJDuaUsH8erSHYBg0u-62">
          <mxGeometry y="26" width="160" height="44" as="geometry" />
        </mxCell>
        <mxCell id="6zBJDuaUsH8erSHYBg0u-64" value="" style="endArrow=diamondThin;endFill=1;endSize=24;html=1;rounded=0;exitX=1;exitY=0.5;exitDx=0;exitDy=0;entryX=-0.001;entryY=0.026;entryDx=0;entryDy=0;entryPerimeter=0;" edge="1" parent="1" source="6zBJDuaUsH8erSHYBg0u-63" target="wkZWv4jO5fBGfH9fX4oG-79">
          <mxGeometry width="160" relative="1" as="geometry">
            <mxPoint x="-186" y="1526" as="sourcePoint" />
            <mxPoint x="-68" y="1526" as="targetPoint" />
          </mxGeometry>
        </mxCell>
        <mxCell id="6zBJDuaUsH8erSHYBg0u-65" value="Use" style="endArrow=open;endSize=12;dashed=1;html=1;rounded=0;exitX=-0.005;exitY=0.833;exitDx=0;exitDy=0;edgeStyle=orthogonalEdgeStyle;entryX=0.75;entryY=0;entryDx=0;entryDy=0;exitPerimeter=0;" edge="1" parent="1" source="6zBJDuaUsH8erSHYBg0u-57" target="wkZWv4jO5fBGfH9fX4oG-101">
          <mxGeometry width="160" relative="1" as="geometry">
            <mxPoint x="442" y="1307" as="sourcePoint" />
            <mxPoint x="264" y="1366" as="targetPoint" />
            <Array as="points">
              <mxPoint x="406" y="1324" />
              <mxPoint x="406" y="1366" />
              <mxPoint x="593" y="1366" />
            </Array>
          </mxGeometry>
        </mxCell>
      </root>
    </mxGraphModel>
  </diagram>
  <diagram id="GhUxTWc-TU406XTwrPqj" name="Page-2">
    <mxGraphModel dx="4303" dy="-1923" grid="1" gridSize="10" guides="1" tooltips="1" connect="1" arrows="1" fold="1" page="1" pageScale="1" pageWidth="827" pageHeight="1169" math="0" shadow="0">
      <root>
        <mxCell id="0" />
        <mxCell id="1" parent="0" />
        <mxCell id="fJXPCTAfPzouTZdKBu9i-1" style="edgeStyle=none;rounded=0;orthogonalLoop=1;jettySize=auto;html=1;exitX=0.5;exitY=1;exitDx=0;exitDy=0;exitPerimeter=0;entryX=0.5;entryY=0;entryDx=0;entryDy=0;entryPerimeter=0;" parent="1" source="fJXPCTAfPzouTZdKBu9i-2" target="fJXPCTAfPzouTZdKBu9i-4" edge="1">
          <mxGeometry relative="1" as="geometry" />
        </mxCell>
        <mxCell id="fJXPCTAfPzouTZdKBu9i-2" value="Пользователь авторезировался в приложении" style="points=[[0.145,0.145,0],[0.5,0,0],[0.855,0.145,0],[1,0.5,0],[0.855,0.855,0],[0.5,1,0],[0.145,0.855,0],[0,0.5,0]];shape=mxgraph.bpmn.event;html=1;verticalLabelPosition=bottom;labelBackgroundColor=#ffffff;verticalAlign=top;align=center;perimeter=ellipsePerimeter;outlineConnect=0;aspect=fixed;outline=standard;symbol=general;" parent="1" vertex="1">
          <mxGeometry x="-587" y="3530" width="50" height="50" as="geometry" />
        </mxCell>
        <mxCell id="fJXPCTAfPzouTZdKBu9i-3" style="edgeStyle=orthogonalEdgeStyle;rounded=0;orthogonalLoop=1;jettySize=auto;html=1;exitX=0.5;exitY=1;exitDx=0;exitDy=0;exitPerimeter=0;entryX=0.5;entryY=0;entryDx=0;entryDy=0;entryPerimeter=0;" parent="1" source="fJXPCTAfPzouTZdKBu9i-4" target="fJXPCTAfPzouTZdKBu9i-7" edge="1">
          <mxGeometry relative="1" as="geometry" />
        </mxCell>
        <mxCell id="fJXPCTAfPzouTZdKBu9i-4" value="Добавить нового ползователя в базу данных" style="points=[[0.25,0,0],[0.5,0,0],[0.75,0,0],[1,0.25,0],[1,0.5,0],[1,0.75,0],[0.75,1,0],[0.5,1,0],[0.25,1,0],[0,0.75,0],[0,0.5,0],[0,0.25,0]];shape=mxgraph.bpmn.task;whiteSpace=wrap;rectStyle=rounded;size=10;taskMarker=abstract;" parent="1" vertex="1">
          <mxGeometry x="-622" y="3617" width="120" height="80" as="geometry" />
        </mxCell>
        <mxCell id="fJXPCTAfPzouTZdKBu9i-5" style="edgeStyle=orthogonalEdgeStyle;rounded=0;orthogonalLoop=1;jettySize=auto;html=1;exitX=0;exitY=0.5;exitDx=0;exitDy=0;exitPerimeter=0;entryX=0.5;entryY=0;entryDx=0;entryDy=0;entryPerimeter=0;" parent="1" source="fJXPCTAfPzouTZdKBu9i-7" target="fJXPCTAfPzouTZdKBu9i-16" edge="1">
          <mxGeometry relative="1" as="geometry" />
        </mxCell>
        <mxCell id="fJXPCTAfPzouTZdKBu9i-6" style="edgeStyle=orthogonalEdgeStyle;rounded=0;orthogonalLoop=1;jettySize=auto;html=1;exitX=1;exitY=0.5;exitDx=0;exitDy=0;exitPerimeter=0;entryX=0.5;entryY=0;entryDx=0;entryDy=0;entryPerimeter=0;" parent="1" source="fJXPCTAfPzouTZdKBu9i-7" target="fJXPCTAfPzouTZdKBu9i-18" edge="1">
          <mxGeometry relative="1" as="geometry" />
        </mxCell>
        <mxCell id="fJXPCTAfPzouTZdKBu9i-7" value="" style="points=[[0.25,0.25,0],[0.5,0,0],[0.75,0.25,0],[1,0.5,0],[0.75,0.75,0],[0.5,1,0],[0.25,0.75,0],[0,0.5,0]];shape=mxgraph.bpmn.gateway2;html=1;verticalLabelPosition=bottom;labelBackgroundColor=#ffffff;verticalAlign=top;align=center;perimeter=rhombusPerimeter;outlineConnect=0;outline=none;symbol=none;gwType=exclusive;" parent="1" vertex="1">
          <mxGeometry x="-587" y="3717" width="50" height="50" as="geometry" />
        </mxCell>
        <mxCell id="fJXPCTAfPzouTZdKBu9i-8" style="edgeStyle=orthogonalEdgeStyle;rounded=0;orthogonalLoop=1;jettySize=auto;html=1;exitX=0;exitY=0.5;exitDx=0;exitDy=0;exitPerimeter=0;entryX=0.5;entryY=0;entryDx=0;entryDy=0;entryPerimeter=0;" parent="1" source="fJXPCTAfPzouTZdKBu9i-11" target="fJXPCTAfPzouTZdKBu9i-26" edge="1">
          <mxGeometry relative="1" as="geometry" />
        </mxCell>
        <mxCell id="fJXPCTAfPzouTZdKBu9i-9" style="edgeStyle=orthogonalEdgeStyle;rounded=0;orthogonalLoop=1;jettySize=auto;html=1;exitX=0.5;exitY=1;exitDx=0;exitDy=0;exitPerimeter=0;entryX=0.5;entryY=0;entryDx=0;entryDy=0;entryPerimeter=0;" parent="1" source="fJXPCTAfPzouTZdKBu9i-11" target="fJXPCTAfPzouTZdKBu9i-28" edge="1">
          <mxGeometry relative="1" as="geometry" />
        </mxCell>
        <mxCell id="fJXPCTAfPzouTZdKBu9i-10" style="edgeStyle=orthogonalEdgeStyle;rounded=0;orthogonalLoop=1;jettySize=auto;html=1;exitX=1;exitY=0.5;exitDx=0;exitDy=0;exitPerimeter=0;entryX=0.5;entryY=0;entryDx=0;entryDy=0;entryPerimeter=0;" parent="1" source="fJXPCTAfPzouTZdKBu9i-11" target="fJXPCTAfPzouTZdKBu9i-30" edge="1">
          <mxGeometry relative="1" as="geometry" />
        </mxCell>
        <mxCell id="fJXPCTAfPzouTZdKBu9i-11" value="" style="points=[[0.25,0.25,0],[0.5,0,0],[0.75,0.25,0],[1,0.5,0],[0.75,0.75,0],[0.5,1,0],[0.25,0.75,0],[0,0.5,0]];shape=mxgraph.bpmn.gateway2;html=1;verticalLabelPosition=bottom;labelBackgroundColor=#ffffff;verticalAlign=top;align=center;perimeter=rhombusPerimeter;outlineConnect=0;outline=none;symbol=none;gwType=parallel;" parent="1" vertex="1">
          <mxGeometry x="-587" y="4217" width="50" height="50" as="geometry" />
        </mxCell>
        <mxCell id="fJXPCTAfPzouTZdKBu9i-12" style="edgeStyle=orthogonalEdgeStyle;rounded=0;orthogonalLoop=1;jettySize=auto;html=1;exitX=0.5;exitY=1;exitDx=0;exitDy=0;exitPerimeter=0;entryX=0.5;entryY=0;entryDx=0;entryDy=0;entryPerimeter=0;" parent="1" source="fJXPCTAfPzouTZdKBu9i-13" target="fJXPCTAfPzouTZdKBu9i-35" edge="1">
          <mxGeometry relative="1" as="geometry">
            <mxPoint x="-562.5714285714284" y="4595.428728376117" as="targetPoint" />
          </mxGeometry>
        </mxCell>
        <mxCell id="fJXPCTAfPzouTZdKBu9i-13" value="Получить ответ от владельца жилья" style="points=[[0.145,0.145,0],[0.5,0,0],[0.855,0.145,0],[1,0.5,0],[0.855,0.855,0],[0.5,1,0],[0.145,0.855,0],[0,0.5,0]];shape=mxgraph.bpmn.event;html=1;verticalLabelPosition=bottom;labelBackgroundColor=#ffffff;verticalAlign=top;align=center;perimeter=ellipsePerimeter;outlineConnect=0;aspect=fixed;outline=throwing;symbol=message;" parent="1" vertex="1">
          <mxGeometry x="-587" y="4487" width="50" height="50" as="geometry" />
        </mxCell>
        <mxCell id="fJXPCTAfPzouTZdKBu9i-14" value="Закончить поиски" style="points=[[0.145,0.145,0],[0.5,0,0],[0.855,0.145,0],[1,0.5,0],[0.855,0.855,0],[0.5,1,0],[0.145,0.855,0],[0,0.5,0]];shape=mxgraph.bpmn.event;html=1;verticalLabelPosition=bottom;labelBackgroundColor=#ffffff;verticalAlign=top;align=center;perimeter=ellipsePerimeter;outlineConnect=0;aspect=fixed;outline=end;symbol=terminate2;" parent="1" vertex="1">
          <mxGeometry x="-589" y="5022" width="50" height="50" as="geometry" />
        </mxCell>
        <mxCell id="fJXPCTAfPzouTZdKBu9i-15" style="edgeStyle=orthogonalEdgeStyle;rounded=0;orthogonalLoop=1;jettySize=auto;html=1;exitX=0.5;exitY=1;exitDx=0;exitDy=0;exitPerimeter=0;entryX=0;entryY=0.5;entryDx=0;entryDy=0;entryPerimeter=0;" parent="1" source="fJXPCTAfPzouTZdKBu9i-16" target="fJXPCTAfPzouTZdKBu9i-20" edge="1">
          <mxGeometry relative="1" as="geometry" />
        </mxCell>
        <mxCell id="fJXPCTAfPzouTZdKBu9i-16" value="Найти жилье самостоятельно" style="points=[[0.25,0,0],[0.5,0,0],[0.75,0,0],[1,0.25,0],[1,0.5,0],[1,0.75,0],[0.75,1,0],[0.5,1,0],[0.25,1,0],[0,0.75,0],[0,0.5,0],[0,0.25,0]];shape=mxgraph.bpmn.task;whiteSpace=wrap;rectStyle=rounded;size=10;taskMarker=abstract;" parent="1" vertex="1">
          <mxGeometry x="-719" y="3819" width="120" height="80" as="geometry" />
        </mxCell>
        <mxCell id="fJXPCTAfPzouTZdKBu9i-17" style="edgeStyle=orthogonalEdgeStyle;rounded=0;orthogonalLoop=1;jettySize=auto;html=1;exitX=0.5;exitY=1;exitDx=0;exitDy=0;exitPerimeter=0;entryX=1;entryY=0.5;entryDx=0;entryDy=0;entryPerimeter=0;" parent="1" source="fJXPCTAfPzouTZdKBu9i-18" target="fJXPCTAfPzouTZdKBu9i-20" edge="1">
          <mxGeometry relative="1" as="geometry" />
        </mxCell>
        <mxCell id="fJXPCTAfPzouTZdKBu9i-18" value="Запросить помощь оператора" style="points=[[0.25,0,0],[0.5,0,0],[0.75,0,0],[1,0.25,0],[1,0.5,0],[1,0.75,0],[0.75,1,0],[0.5,1,0],[0.25,1,0],[0,0.75,0],[0,0.5,0],[0,0.25,0]];shape=mxgraph.bpmn.task;whiteSpace=wrap;rectStyle=rounded;size=10;taskMarker=abstract;" parent="1" vertex="1">
          <mxGeometry x="-522" y="3819" width="120" height="80" as="geometry" />
        </mxCell>
        <mxCell id="fJXPCTAfPzouTZdKBu9i-19" style="edgeStyle=orthogonalEdgeStyle;rounded=0;orthogonalLoop=1;jettySize=auto;html=1;exitX=0.5;exitY=1;exitDx=0;exitDy=0;exitPerimeter=0;entryX=0.5;entryY=0;entryDx=0;entryDy=0;entryPerimeter=0;" parent="1" source="fJXPCTAfPzouTZdKBu9i-20" target="fJXPCTAfPzouTZdKBu9i-22" edge="1">
          <mxGeometry relative="1" as="geometry" />
        </mxCell>
        <mxCell id="fJXPCTAfPzouTZdKBu9i-20" value="" style="points=[[0.25,0.25,0],[0.5,0,0],[0.75,0.25,0],[1,0.5,0],[0.75,0.75,0],[0.5,1,0],[0.25,0.75,0],[0,0.5,0]];shape=mxgraph.bpmn.gateway2;html=1;verticalLabelPosition=bottom;labelBackgroundColor=#ffffff;verticalAlign=top;align=center;perimeter=rhombusPerimeter;outlineConnect=0;outline=none;symbol=none;gwType=exclusive;" parent="1" vertex="1">
          <mxGeometry x="-587" y="3918" width="50" height="50" as="geometry" />
        </mxCell>
        <mxCell id="fJXPCTAfPzouTZdKBu9i-21" style="edgeStyle=orthogonalEdgeStyle;rounded=0;orthogonalLoop=1;jettySize=auto;html=1;exitX=0.5;exitY=1;exitDx=0;exitDy=0;exitPerimeter=0;entryX=0.5;entryY=0;entryDx=0;entryDy=0;entryPerimeter=0;" parent="1" source="fJXPCTAfPzouTZdKBu9i-22" target="fJXPCTAfPzouTZdKBu9i-24" edge="1">
          <mxGeometry relative="1" as="geometry" />
        </mxCell>
        <mxCell id="fJXPCTAfPzouTZdKBu9i-22" value="Найти подходящее жилье" style="points=[[0.25,0,0],[0.5,0,0],[0.75,0,0],[1,0.25,0],[1,0.5,0],[1,0.75,0],[0.75,1,0],[0.5,1,0],[0.25,1,0],[0,0.75,0],[0,0.5,0],[0,0.25,0]];shape=mxgraph.bpmn.task;whiteSpace=wrap;rectStyle=rounded;size=10;taskMarker=abstract;" parent="1" vertex="1">
          <mxGeometry x="-622" y="4001" width="120" height="80" as="geometry" />
        </mxCell>
        <mxCell id="fJXPCTAfPzouTZdKBu9i-23" style="edgeStyle=orthogonalEdgeStyle;rounded=0;orthogonalLoop=1;jettySize=auto;html=1;exitX=0.5;exitY=1;exitDx=0;exitDy=0;exitPerimeter=0;entryX=0.5;entryY=0;entryDx=0;entryDy=0;entryPerimeter=0;" parent="1" source="fJXPCTAfPzouTZdKBu9i-24" target="fJXPCTAfPzouTZdKBu9i-11" edge="1">
          <mxGeometry relative="1" as="geometry" />
        </mxCell>
        <mxCell id="fJXPCTAfPzouTZdKBu9i-24" value="Написать владельцу жилья" style="points=[[0.25,0,0],[0.5,0,0],[0.75,0,0],[1,0.25,0],[1,0.5,0],[1,0.75,0],[0.75,1,0],[0.5,1,0],[0.25,1,0],[0,0.75,0],[0,0.5,0],[0,0.25,0]];shape=mxgraph.bpmn.task;whiteSpace=wrap;rectStyle=rounded;size=10;taskMarker=abstract;" parent="1" vertex="1">
          <mxGeometry x="-622" y="4113" width="120" height="80" as="geometry" />
        </mxCell>
        <mxCell id="fJXPCTAfPzouTZdKBu9i-25" style="edgeStyle=orthogonalEdgeStyle;rounded=0;orthogonalLoop=1;jettySize=auto;html=1;exitX=0.5;exitY=1;exitDx=0;exitDy=0;exitPerimeter=0;entryX=0;entryY=0.5;entryDx=0;entryDy=0;entryPerimeter=0;" parent="1" source="fJXPCTAfPzouTZdKBu9i-26" target="fJXPCTAfPzouTZdKBu9i-32" edge="1">
          <mxGeometry relative="1" as="geometry" />
        </mxCell>
        <mxCell id="fJXPCTAfPzouTZdKBu9i-26" value="Узнать стоимость" style="points=[[0.25,0,0],[0.5,0,0],[0.75,0,0],[1,0.25,0],[1,0.5,0],[1,0.75,0],[0.75,1,0],[0.5,1,0],[0.25,1,0],[0,0.75,0],[0,0.5,0],[0,0.25,0]];shape=mxgraph.bpmn.task;whiteSpace=wrap;rectStyle=rounded;size=10;taskMarker=abstract;" parent="1" vertex="1">
          <mxGeometry x="-770" y="4295" width="120" height="80" as="geometry" />
        </mxCell>
        <mxCell id="fJXPCTAfPzouTZdKBu9i-27" style="edgeStyle=orthogonalEdgeStyle;rounded=0;orthogonalLoop=1;jettySize=auto;html=1;exitX=0.5;exitY=1;exitDx=0;exitDy=0;exitPerimeter=0;entryX=0.5;entryY=0;entryDx=0;entryDy=0;entryPerimeter=0;" parent="1" source="fJXPCTAfPzouTZdKBu9i-28" target="fJXPCTAfPzouTZdKBu9i-32" edge="1">
          <mxGeometry relative="1" as="geometry" />
        </mxCell>
        <mxCell id="fJXPCTAfPzouTZdKBu9i-28" value="Узнать свободен ли нужный период" style="points=[[0.25,0,0],[0.5,0,0],[0.75,0,0],[1,0.25,0],[1,0.5,0],[1,0.75,0],[0.75,1,0],[0.5,1,0],[0.25,1,0],[0,0.75,0],[0,0.5,0],[0,0.25,0]];shape=mxgraph.bpmn.task;whiteSpace=wrap;rectStyle=rounded;size=10;taskMarker=abstract;" parent="1" vertex="1">
          <mxGeometry x="-622" y="4295" width="120" height="80" as="geometry" />
        </mxCell>
        <mxCell id="fJXPCTAfPzouTZdKBu9i-29" style="edgeStyle=orthogonalEdgeStyle;rounded=0;orthogonalLoop=1;jettySize=auto;html=1;exitX=0.5;exitY=1;exitDx=0;exitDy=0;exitPerimeter=0;entryX=1;entryY=0.5;entryDx=0;entryDy=0;entryPerimeter=0;" parent="1" source="fJXPCTAfPzouTZdKBu9i-30" target="fJXPCTAfPzouTZdKBu9i-32" edge="1">
          <mxGeometry relative="1" as="geometry" />
        </mxCell>
        <mxCell id="fJXPCTAfPzouTZdKBu9i-30" value="Узнать информацию о жилье" style="points=[[0.25,0,0],[0.5,0,0],[0.75,0,0],[1,0.25,0],[1,0.5,0],[1,0.75,0],[0.75,1,0],[0.5,1,0],[0.25,1,0],[0,0.75,0],[0,0.5,0],[0,0.25,0]];shape=mxgraph.bpmn.task;whiteSpace=wrap;rectStyle=rounded;size=10;taskMarker=abstract;" parent="1" vertex="1">
          <mxGeometry x="-474" y="4295" width="120" height="80" as="geometry" />
        </mxCell>
        <mxCell id="fJXPCTAfPzouTZdKBu9i-31" style="edgeStyle=orthogonalEdgeStyle;rounded=0;orthogonalLoop=1;jettySize=auto;html=1;exitX=0.5;exitY=1;exitDx=0;exitDy=0;exitPerimeter=0;entryX=0.5;entryY=0;entryDx=0;entryDy=0;entryPerimeter=0;" parent="1" source="fJXPCTAfPzouTZdKBu9i-32" target="fJXPCTAfPzouTZdKBu9i-13" edge="1">
          <mxGeometry relative="1" as="geometry">
            <mxPoint x="-562.5714285714284" y="4496.000061035156" as="targetPoint" />
          </mxGeometry>
        </mxCell>
        <mxCell id="fJXPCTAfPzouTZdKBu9i-32" value="" style="points=[[0.25,0.25,0],[0.5,0,0],[0.75,0.25,0],[1,0.5,0],[0.75,0.75,0],[0.5,1,0],[0.25,0.75,0],[0,0.5,0]];shape=mxgraph.bpmn.gateway2;html=1;verticalLabelPosition=bottom;labelBackgroundColor=#ffffff;verticalAlign=top;align=center;perimeter=rhombusPerimeter;outlineConnect=0;outline=none;symbol=none;gwType=parallel;" parent="1" vertex="1">
          <mxGeometry x="-587" y="4407" width="50" height="50" as="geometry" />
        </mxCell>
        <mxCell id="fJXPCTAfPzouTZdKBu9i-33" style="edgeStyle=orthogonalEdgeStyle;rounded=0;orthogonalLoop=1;jettySize=auto;html=1;exitX=0;exitY=0.5;exitDx=0;exitDy=0;exitPerimeter=0;entryX=0.5;entryY=0;entryDx=0;entryDy=0;entryPerimeter=0;" parent="1" source="fJXPCTAfPzouTZdKBu9i-35" target="fJXPCTAfPzouTZdKBu9i-37" edge="1">
          <mxGeometry relative="1" as="geometry" />
        </mxCell>
        <mxCell id="fJXPCTAfPzouTZdKBu9i-34" style="edgeStyle=orthogonalEdgeStyle;rounded=0;orthogonalLoop=1;jettySize=auto;html=1;exitX=1;exitY=0.5;exitDx=0;exitDy=0;exitPerimeter=0;entryX=0.5;entryY=0;entryDx=0;entryDy=0;entryPerimeter=0;" parent="1" source="fJXPCTAfPzouTZdKBu9i-35" target="fJXPCTAfPzouTZdKBu9i-39" edge="1">
          <mxGeometry relative="1" as="geometry" />
        </mxCell>
        <mxCell id="fJXPCTAfPzouTZdKBu9i-35" value="" style="points=[[0.25,0.25,0],[0.5,0,0],[0.75,0.25,0],[1,0.5,0],[0.75,0.75,0],[0.5,1,0],[0.25,0.75,0],[0,0.5,0]];shape=mxgraph.bpmn.gateway2;html=1;verticalLabelPosition=bottom;labelBackgroundColor=#ffffff;verticalAlign=top;align=center;perimeter=rhombusPerimeter;outlineConnect=0;outline=none;symbol=none;gwType=exclusive;" parent="1" vertex="1">
          <mxGeometry x="-586" y="4587" width="50" height="50" as="geometry" />
        </mxCell>
        <mxCell id="fJXPCTAfPzouTZdKBu9i-36" style="edgeStyle=orthogonalEdgeStyle;rounded=0;orthogonalLoop=1;jettySize=auto;html=1;exitX=0.5;exitY=1;exitDx=0;exitDy=0;exitPerimeter=0;entryX=0;entryY=0.5;entryDx=0;entryDy=0;entryPerimeter=0;" parent="1" source="fJXPCTAfPzouTZdKBu9i-37" target="fJXPCTAfPzouTZdKBu9i-41" edge="1">
          <mxGeometry relative="1" as="geometry" />
        </mxCell>
        <mxCell id="fJXPCTAfPzouTZdKBu9i-37" value="Согласиться на найденное жилье" style="points=[[0.25,0,0],[0.5,0,0],[0.75,0,0],[1,0.25,0],[1,0.5,0],[1,0.75,0],[0.75,1,0],[0.5,1,0],[0.25,1,0],[0,0.75,0],[0,0.5,0],[0,0.25,0]];shape=mxgraph.bpmn.task;whiteSpace=wrap;rectStyle=rounded;size=10;taskMarker=abstract;" parent="1" vertex="1">
          <mxGeometry x="-707" y="4637" width="120" height="80" as="geometry" />
        </mxCell>
        <mxCell id="fJXPCTAfPzouTZdKBu9i-38" style="edgeStyle=orthogonalEdgeStyle;rounded=0;orthogonalLoop=1;jettySize=auto;html=1;exitX=0.5;exitY=1;exitDx=0;exitDy=0;exitPerimeter=0;entryX=1;entryY=0.5;entryDx=0;entryDy=0;entryPerimeter=0;" parent="1" source="fJXPCTAfPzouTZdKBu9i-39" target="fJXPCTAfPzouTZdKBu9i-41" edge="1">
          <mxGeometry relative="1" as="geometry" />
        </mxCell>
        <mxCell id="fJXPCTAfPzouTZdKBu9i-39" value="Продолжить поиски" style="points=[[0.25,0,0],[0.5,0,0],[0.75,0,0],[1,0.25,0],[1,0.5,0],[1,0.75,0],[0.75,1,0],[0.5,1,0],[0.25,1,0],[0,0.75,0],[0,0.5,0],[0,0.25,0]];shape=mxgraph.bpmn.task;whiteSpace=wrap;rectStyle=rounded;size=10;taskMarker=abstract;" parent="1" vertex="1">
          <mxGeometry x="-526" y="4637" width="120" height="80" as="geometry" />
        </mxCell>
        <mxCell id="fJXPCTAfPzouTZdKBu9i-40" style="edgeStyle=orthogonalEdgeStyle;rounded=0;orthogonalLoop=1;jettySize=auto;html=1;exitX=0.5;exitY=1;exitDx=0;exitDy=0;exitPerimeter=0;entryX=0.5;entryY=0;entryDx=0;entryDy=0;entryPerimeter=0;" parent="1" source="fJXPCTAfPzouTZdKBu9i-41" target="fJXPCTAfPzouTZdKBu9i-43" edge="1">
          <mxGeometry relative="1" as="geometry" />
        </mxCell>
        <mxCell id="fJXPCTAfPzouTZdKBu9i-41" value="" style="points=[[0.25,0.25,0],[0.5,0,0],[0.75,0.25,0],[1,0.5,0],[0.75,0.75,0],[0.5,1,0],[0.25,0.75,0],[0,0.5,0]];shape=mxgraph.bpmn.gateway2;html=1;verticalLabelPosition=bottom;labelBackgroundColor=#ffffff;verticalAlign=top;align=center;perimeter=rhombusPerimeter;outlineConnect=0;outline=none;symbol=none;gwType=exclusive;" parent="1" vertex="1">
          <mxGeometry x="-587" y="4730" width="50" height="50" as="geometry" />
        </mxCell>
        <mxCell id="fJXPCTAfPzouTZdKBu9i-42" style="edgeStyle=orthogonalEdgeStyle;rounded=0;orthogonalLoop=1;jettySize=auto;html=1;exitX=0.5;exitY=1;exitDx=0;exitDy=0;exitPerimeter=0;entryX=0.5;entryY=0;entryDx=0;entryDy=0;entryPerimeter=0;" parent="1" source="fJXPCTAfPzouTZdKBu9i-43" target="fJXPCTAfPzouTZdKBu9i-45" edge="1">
          <mxGeometry relative="1" as="geometry" />
        </mxCell>
        <mxCell id="fJXPCTAfPzouTZdKBu9i-43" value="Снять жилье" style="points=[[0.25,0,0],[0.5,0,0],[0.75,0,0],[1,0.25,0],[1,0.5,0],[1,0.75,0],[0.75,1,0],[0.5,1,0],[0.25,1,0],[0,0.75,0],[0,0.5,0],[0,0.25,0]];shape=mxgraph.bpmn.task;whiteSpace=wrap;rectStyle=rounded;size=10;taskMarker=abstract;" parent="1" vertex="1">
          <mxGeometry x="-622" y="4800" width="120" height="80" as="geometry" />
        </mxCell>
        <mxCell id="fJXPCTAfPzouTZdKBu9i-44" style="edgeStyle=orthogonalEdgeStyle;rounded=0;orthogonalLoop=1;jettySize=auto;html=1;exitX=0.5;exitY=1;exitDx=0;exitDy=0;exitPerimeter=0;entryX=0.5;entryY=0;entryDx=0;entryDy=0;entryPerimeter=0;" parent="1" source="fJXPCTAfPzouTZdKBu9i-45" target="fJXPCTAfPzouTZdKBu9i-14" edge="1">
          <mxGeometry relative="1" as="geometry">
            <mxPoint x="-561" y="5012" as="targetPoint" />
          </mxGeometry>
        </mxCell>
        <mxCell id="fJXPCTAfPzouTZdKBu9i-45" value="Получить чек" style="points=[[0.25,0,0],[0.5,0,0],[0.75,0,0],[1,0.25,0],[1,0.5,0],[1,0.75,0],[0.75,1,0],[0.5,1,0],[0.25,1,0],[0,0.75,0],[0,0.5,0],[0,0.25,0]];shape=mxgraph.bpmn.task;whiteSpace=wrap;rectStyle=rounded;size=10;taskMarker=abstract;" parent="1" vertex="1">
          <mxGeometry x="-621" y="4906" width="120" height="80" as="geometry" />
        </mxCell>
      </root>
    </mxGraphModel>
  </diagram>
</mxfile>
